<?xml version="1.0" encoding="UTF-8" standalone="no"?>
<!DOCTYPE svg PUBLIC "-//W3C//DTD SVG 1.1//EN" "http://www.w3.org/Graphics/SVG/1.1/DTD/svg11.dtd">
<svg xmlns="http://www.w3.org/2000/svg" version="1.1" viewBox="0.00 0.00 512.00 512.00">
<g stroke-width="2.00" fill="none" stroke-linecap="butt">
<path stroke="#8a8aff" vector-effect="non-scaling-stroke" d="
  M 90.32 136.93
  Q 75.07 136.83 60.02 136.90
  C 58.49 136.91 57.33 137.60 55.75 137.55
  A 0.49 0.48 -66.3 0 0 55.42 137.68
  Q 54.86 138.23 54.92 138.91
  Q 55.00 139.83 54.43 139.15
  L 54.02 138.66"
/>
<path stroke="#7979ff" vector-effect="non-scaling-stroke" d="
  M 75.20 184.96
  Q 74.31 185.18 74.44 186.14
  A 0.65 0.65 0.0 0 1 73.80 186.88
  L 44.74 186.88
  Q 44.20 186.88 44.02 186.37
  L 43.24 184.14"
/>
<path stroke="#8a8aff" vector-effect="non-scaling-stroke" d="
  M 469.22 142.70
  Q 469.02 142.61 468.84 142.62
  A 0.50 0.50 0.0 0 0 468.36 143.10
  Q 468.35 143.24 468.39 143.37
  Q 468.53 143.87 468.00 143.87
  L 279.23 143.89
  A 1.44 1.43 5.6 0 0 277.82 145.04
  L 277.64 145.95"
/>
<path stroke="#7979ff" vector-effect="non-scaling-stroke" d="
  M 462.76 173.49
  L 462.22 173.90
  A 0.20 0.20 0.0 0 1 461.94 173.86
  Q 461.83 173.69 461.97 173.53
  Q 462.32 173.12 461.79 173.12
  Q 373.69 173.12 285.62 173.12
  Q 285.13 173.12 285.08 173.61
  Q 284.96 174.69 284.64 175.33"
/>
<path stroke="#4e4eff" vector-effect="non-scaling-stroke" d="
  M 233.40 325.98
  Q 232.87 325.63 232.28 325.62
  Q 232.18 325.62 232.28 325.61
  Q 232.33 325.60 232.37 325.58
  Q 232.52 325.51 232.48 325.34
  Q 232.38 324.88 231.91 324.88
  Q 141.93 324.89 51.97 324.88
  Q 48.32 324.88 45.07 326.32
  Q 44.67 326.49 44.41 326.15
  Q 44.27 325.95 44.36 325.66
  Q 44.41 325.49 44.58 325.53
  Q 44.82 325.59 44.81 325.30
  Q 44.80 325.09 44.68 324.93
  Q 44.43 324.61 44.09 324.70"
/>
<path stroke="#3a3aff" vector-effect="non-scaling-stroke" d="
  M 234.61 378.71
  Q 234.59 378.09 234.37 377.63
  A 1.04 1.03 -53.7 0 1 234.28 377.02
  L 234.47 375.69
  Q 234.56 375.12 233.98 375.12
  Q 140.18 375.13 46.76 375.11
  Q 45.74 375.11 44.86 375.62
  Q 44.46 375.86 44.10 375.55
  Q 43.42 374.98 42.75 375.28"
/>
<path stroke="#4e4eff" vector-effect="non-scaling-stroke" d="
  M 468.30 332.61
  Q 454.97 331.30 441.26 331.96
  Q 440.32 332.00 438.47 332.80
  Q 438.18 332.92 438.04 332.64
  Q 437.99 332.53 437.86 332.43
  Q 437.23 331.95 437.17 332.74
  Q 437.08 334.03 436.11 333.92"
/>
<path stroke="#3a3aff" vector-effect="non-scaling-stroke" d="
  M 460.57 366.26
  Q 460.37 365.81 460.35 365.33
  Q 460.34 365.10 460.00 365.10
  L 429.02 365.17
  Q 428.46 365.17 428.25 365.68
  Q 427.88 366.55 427.11 366.20
  Q 426.67 365.99 426.95 366.39
  Q 427.03 366.51 427.02 366.67
  Q 426.99 366.99 426.67 366.92
  L 426.08 366.78"
/>
</g>
<path fill="#9595ff" d="
  M 90.32 136.93
  Q 75.07 136.83 60.02 136.90
  C 58.49 136.91 57.33 137.60 55.75 137.55
  A 0.49 0.48 -66.3 0 0 55.42 137.68
  Q 54.86 138.23 54.92 138.91
  Q 55.00 139.83 54.43 139.15
  L 54.02 138.66
  Q 77.08 84.16 129.26 58.26
  Q 157.54 44.22 191.91 42.76
  Q 199.89 42.43 203.48 44.20
  C 212.80 48.80 215.35 59.21 209.98 67.98
  Q 200.81 82.93 191.14 99.29
  Q 188.41 103.91 185.36 106.12
  C 176.63 112.48 163.72 108.28 160.81 97.76
  C 158.60 89.77 162.17 85.57 165.82 79.15
  Q 166.18 78.50 165.46 78.69
  C 133.31 87.39 106.85 108.15 90.32 136.93
  Z"
/>
<path fill="#9595ff" d="
  M 469.22 142.70
  Q 469.02 142.61 468.84 142.62
  A 0.50 0.50 0.0 0 0 468.36 143.10
  Q 468.35 143.24 468.39 143.37
  Q 468.53 143.87 468.00 143.87
  L 279.23 143.89
  A 1.44 1.43 5.6 0 0 277.82 145.04
  L 277.64 145.95
  A 95.95 95.94 62.2 0 1 298.42 78.67
  A 95.95 95.93 -78.3 0 1 347.87 46.13
  A 96.00 96.00 0.0 0 1 410.39 50.13
  A 96.03 95.97 84.2 0 1 452.55 84.49
  A 96.01 95.96 29.0 0 1 469.22 142.70
  Z"
/>
<path fill="#7f7fff" d="
  M 90.32 136.93
  Q 77.73 159.44 75.20 184.96
  Q 74.31 185.18 74.44 186.14
  A 0.65 0.65 0.0 0 1 73.80 186.88
  L 44.74 186.88
  Q 44.20 186.88 44.02 186.37
  L 43.24 184.14
  Q 45.13 160.72 54.02 138.66
  L 54.43 139.15
  Q 55.00 139.83 54.92 138.91
  Q 54.86 138.23 55.42 137.68
  A 0.49 0.48 -66.3 0 1 55.75 137.55
  C 57.33 137.60 58.49 136.91 60.02 136.90
  Q 75.07 136.83 90.32 136.93
  Z"
/>
<path fill="#7f7fff" d="
  M 469.22 142.70
  A 96.26 96.26 0.0 0 1 462.76 173.49
  L 462.22 173.90
  A 0.20 0.20 0.0 0 1 461.94 173.86
  Q 461.83 173.69 461.97 173.53
  Q 462.32 173.12 461.79 173.12
  Q 373.69 173.12 285.62 173.12
  Q 285.13 173.12 285.08 173.61
  Q 284.96 174.69 284.64 175.33
  A 96.02 95.93 -58.4 0 1 277.64 145.95
  L 277.82 145.04
  A 1.44 1.43 5.6 0 1 279.23 143.89
  L 468.00 143.87
  Q 468.53 143.87 468.39 143.37
  Q 468.35 143.24 468.36 143.10
  A 0.50 0.50 0.0 0 1 468.84 142.62
  Q 469.02 142.61 469.22 142.70
  Z"
/>
<path fill="#7373ff" d="
  M 462.76 173.49
  A 96.00 95.96 -8.0 0 1 431.35 215.11
  A 96.00 95.99 25.9 0 1 374.88 234.62
  A 96.00 95.97 -27.2 0 1 316.24 215.80
  A 95.98 95.94 7.0 0 1 284.64 175.33
  Q 284.96 174.69 285.08 173.61
  Q 285.13 173.12 285.62 173.12
  Q 373.69 173.12 461.79 173.12
  Q 462.32 173.12 461.97 173.53
  Q 461.83 173.69 461.94 173.86
  A 0.20 0.20 0.0 0 0 462.22 173.90
  L 462.76 173.49
  Z"
/>
<path fill="#7373ff" d="
  M 43.24 184.14
  L 44.02 186.37
  Q 44.20 186.88 44.74 186.88
  L 73.80 186.88
  A 0.65 0.65 0.0 0 0 74.44 186.14
  Q 74.31 185.18 75.20 184.96
  Q 74.84 189.72 74.67 194.50
  Q 74.46 200.51 73.30 203.04
  C 66.52 217.89 44.98 214.71 42.78 198.50
  Q 42.28 194.82 43.24 184.14
  Z"
/>
<path fill="#5656ff" d="
  M 233.40 325.98
  Q 232.87 325.63 232.28 325.62
  Q 232.18 325.62 232.28 325.61
  Q 232.33 325.60 232.37 325.58
  Q 232.52 325.51 232.48 325.34
  Q 232.38 324.88 231.91 324.88
  Q 141.93 324.89 51.97 324.88
  Q 48.32 324.88 45.07 326.32
  Q 44.67 326.49 44.41 326.15
  Q 44.27 325.95 44.36 325.66
  Q 44.41 325.49 44.58 325.53
  Q 44.82 325.59 44.81 325.30
  Q 44.80 325.09 44.68 324.93
  Q 44.43 324.61 44.09 324.70
  C 46.84 304.53 56.52 288.88 76.25 282.05
  C 89.65 277.41 104.33 277.25 119.30 277.31
  Q 144.75 277.41 168.28 277.34
  Q 186.06 277.29 200.56 281.94
  C 221.05 288.52 231.03 305.41 233.40 325.98
  Z"
/>
<path fill="#5656ff" d="
  M 468.30 332.61
  Q 454.97 331.30 441.26 331.96
  Q 440.32 332.00 438.47 332.80
  Q 438.18 332.92 438.04 332.64
  Q 437.99 332.53 437.86 332.43
  Q 437.23 331.95 437.17 332.74
  Q 437.08 334.03 436.11 333.92
  Q 437.34 325.44 437.58 316.79
  Q 437.74 311.43 438.90 308.81
  C 445.64 293.69 467.45 297.16 469.25 313.75
  Q 469.89 319.69 468.30 332.61
  Z"
/>
<path fill="#4545ff" d="
  M 44.09 324.70
  Q 44.43 324.61 44.68 324.93
  Q 44.80 325.09 44.81 325.30
  Q 44.82 325.59 44.58 325.53
  Q 44.41 325.49 44.36 325.66
  Q 44.27 325.95 44.41 326.15
  Q 44.67 326.49 45.07 326.32
  Q 48.32 324.88 51.97 324.88
  Q 141.93 324.89 231.91 324.88
  Q 232.38 324.88 232.48 325.34
  Q 232.52 325.51 232.37 325.58
  Q 232.33 325.60 232.28 325.61
  Q 232.18 325.62 232.28 325.62
  Q 232.87 325.63 233.40 325.98
  Q 234.60 334.65 234.63 343.50
  Q 234.68 361.10 234.61 378.71
  Q 234.59 378.09 234.37 377.63
  A 1.04 1.03 -53.7 0 1 234.28 377.02
  L 234.47 375.69
  Q 234.56 375.12 233.98 375.12
  Q 140.18 375.13 46.76 375.11
  Q 45.74 375.11 44.86 375.62
  Q 44.46 375.86 44.10 375.55
  Q 43.42 374.98 42.75 375.28
  Q 42.68 359.40 42.69 343.50
  Q 42.70 334.05 44.09 324.70
  Z"
/>
<path fill="#4545ff" d="
  M 468.30 332.61
  Q 466.15 350.88 460.57 366.26
  Q 460.37 365.81 460.35 365.33
  Q 460.34 365.10 460.00 365.10
  L 429.02 365.17
  Q 428.46 365.17 428.25 365.68
  Q 427.88 366.55 427.11 366.20
  Q 426.67 365.99 426.95 366.39
  Q 427.03 366.51 427.02 366.67
  Q 426.99 366.99 426.67 366.92
  L 426.08 366.78
  Q 433.38 351.12 436.11 333.92
  Q 437.08 334.03 437.17 332.74
  Q 437.23 331.95 437.86 332.43
  Q 437.99 332.53 438.04 332.64
  Q 438.18 332.92 438.47 332.80
  Q 440.32 332.00 441.26 331.96
  Q 454.97 331.30 468.30 332.61
  Z"
/>
<path fill="#2f2fff" d="
  M 460.57 366.26
  C 447.00 405.17 418.76 435.81 382.27 453.91
  Q 354.81 467.53 320.68 469.28
  Q 313.15 469.66 309.14 467.99
  C 299.76 464.08 296.87 453.14 302.04 444.44
  Q 312.55 426.75 322.60 410.12
  C 328.13 400.96 341.82 400.14 348.47 408.48
  Q 353.94 415.36 351.06 424.13
  C 350.12 427.00 347.98 429.89 346.37 432.58
  Q 345.96 433.26 346.73 433.07
  C 381.61 423.98 410.63 399.34 426.08 366.78
  L 426.67 366.92
  Q 426.99 366.99 427.02 366.67
  Q 427.03 366.51 426.95 366.39
  Q 426.67 365.99 427.11 366.20
  Q 427.88 366.55 428.25 365.68
  Q 428.46 365.17 429.02 365.17
  L 460.00 365.10
  Q 460.34 365.10 460.35 365.33
  Q 460.37 365.81 460.57 366.26
  Z"
/>
<path fill="#2f2fff" d="
  M 234.61 378.71
  Q 234.83 394.37 234.42 409.99
  Q 234.00 426.33 228.22 440.09
  C 221.90 455.15 208.36 463.71 192.82 466.88
  Q 181.75 469.14 172.09 469.20
  Q 139.41 469.37 108.21 469.25
  C 90.11 469.18 70.94 466.27 58.11 453.50
  C 50.94 446.37 46.76 436.32 44.81 426.30
  Q 43.35 418.79 43.10 410.25
  Q 42.59 392.78 42.75 375.28
  Q 43.42 374.98 44.10 375.55
  Q 44.46 375.86 44.86 375.62
  Q 45.74 375.11 46.76 375.11
  Q 140.18 375.13 233.98 375.12
  Q 234.56 375.12 234.47 375.69
  L 234.28 377.02
  A 1.04 1.03 -53.7 0 0 234.37 377.63
  Q 234.59 378.09 234.61 378.71
  Z"
/>
</svg>
